<?xml version="1.0" encoding="UTF-8"?>
<svg width="256" height="256" viewBox="0 0 256 256" xmlns="http://www.w3.org/2000/svg">
  <!-- Calendar base -->
  <rect x="36" y="48" width="184" height="176" rx="8" fill="#ffffff" stroke="#2d3748" stroke-width="8"/>
  
  <!-- Calendar header -->
  <rect x="36" y="48" width="184" height="36" rx="4" fill="#4a5568" stroke="#2d3748" stroke-width="4"/>
  
  <!-- Calendar hanging tabs -->
  <rect x="76" y="24" width="8" height="24" rx="2" fill="#4a5568"/>
  <rect x="172" y="24" width="8" height="24" rx="2" fill="#4a5568"/>
  
  <!-- Grid lines -->
  <line x1="36" y1="120" x2="220" y2="120" stroke="#cbd5e0" stroke-width="2" />
  <line x1="36" y1="156" x2="220" y2="156" stroke="#cbd5e0" stroke-width="2" />
  <line x1="36" y1="192" x2="220" y2="192" stroke="#cbd5e0" stroke-width="2" />
  
  <line x1="85" y1="84" x2="85" y2="224" stroke="#cbd5e0" stroke-width="2" />
  <line x1="134" y1="84" x2="134" y2="224" stroke="#cbd5e0" stroke-width="2" />
  <line x1="183" y1="84" x2="183" y2="224" stroke="#cbd5e0" stroke-width="2" />
  
  <!-- Current day highlight -->
  <rect x="134" y="156" width="49" height="36" fill="#ebf8ff" />
  
  <!-- Day numbers -->
  <text x="60" y="110" font-family="Arial, sans-serif" font-size="16" font-weight="bold" text-anchor="middle">1</text>
  <text x="110" y="110" font-family="Arial, sans-serif" font-size="16" font-weight="bold" text-anchor="middle">2</text>
  <text x="160" y="110" font-family="Arial, sans-serif" font-size="16" font-weight="bold" text-anchor="middle">3</text>
  <text x="210" y="110" font-family="Arial, sans-serif" font-size="16" font-weight="bold" text-anchor="middle">4</text>
  
  <text x="60" y="146" font-family="Arial, sans-serif" font-size="16" font-weight="bold" text-anchor="middle">5</text>
  <text x="110" y="146" font-family="Arial, sans-serif" font-size="16" font-weight="bold" text-anchor="middle">6</text>
  <text x="160" y="146" font-family="Arial, sans-serif" font-size="16" font-weight="bold" text-anchor="middle">7</text>
  <text x="210" y="146" font-family="Arial, sans-serif" font-size="16" font-weight="bold" text-anchor="middle">8</text>
  
  <text x="60" y="182" font-family="Arial, sans-serif" font-size="16" font-weight="bold" text-anchor="middle">9</text>
  <text x="107" y="182" font-family="Arial, sans-serif" font-size="16" font-weight="bold" text-anchor="middle">10</text>
  <text x="157" y="182" font-family="Arial, sans-serif" font-size="16" font-weight="bold" text-anchor="middle">11</text>
  <text x="207" y="182" font-family="Arial, sans-serif" font-size="16" font-weight="bold" text-anchor="middle">12</text>
  
  <text x="60" y="218" font-family="Arial, sans-serif" font-size="16" font-weight="bold" text-anchor="middle">13</text>
  <text x="107" y="218" font-family="Arial, sans-serif" font-size="16" font-weight="bold" text-anchor="middle">14</text>
  <text x="157" y="218" font-family="Arial, sans-serif" font-size="16" font-weight="bold" text-anchor="middle">15</text>
  <text x="207" y="218" font-family="Arial, sans-serif" font-size="16" font-weight="bold" text-anchor="middle">16</text>
</svg>
